#!OML:ASF E:/inclinewalkrobotboard/Project1/Captureday1/Session1/subject1.ASF
:FULLY-SPECIFIED
:DEGREES
88
root 0 0 0 1.0394825190081016 -3.6723026539167227 1.8304342412017438
lowerback 11.978650871097225 0.8495146611820261 -0.06293719953969909
upperback -4.230572482429849 1.078765761279597 -0.5428394000267379
thorax -11.341425189342772 0.4938006547195446 -0.7840749929360108
lowerneck -5.780565592863014 1.4864554392728064 4.56487821500994
upperneck 18.034684105563397 2.941493211409517 -8.343924439546631
head 6.58926918147424 1.0741046483216747 -3.2247543539641885
rclavicle 1.9457880899218381E-16 -2.035021592684989E-15
rhumerus 19.88540103344265 14.34663264053855 -47.738091788587255
rradius 72.22985117582691
rwrist 27.130365701517192
rhand -34.62997986372641 -57.105579229668294
rfingers 7.125020000000035
rthumb -7.782974188979658 -87.1601400245587
lclavicle -1.2284241837694206E-16 -4.490502874259713E-16
lhumerus 21.029107148024018 -12.454472220819943 45.30270631682748
lradius 70.02856875974683
lwrist -22.264346609786863
lhand -44.78339583838572 -70.24728776361417
lfingers 7.125020000000026
lthumb -17.57147934816111 -40.92564516298776
rfemur -24.697288227999167 -2.31493525673049 17.11121413175655
rtibia 54.5094297659176
rfoot -28.99433807978084 -16.65464479366206
rtoes -18.495583197887903
lfemur -25.901572320750397 2.4394166539303304 -18.063942721299565
ltibia 53.198293433019636
lfoot -30.790950274337703 -3.4574647298362966
ltoes -20.87455086635877
89
root 0 0 0 1.0393090564245406 -3.672754303304579 1.830252975734999
lowerback 11.978665425623193 0.8494565802229007 -0.06279057234128838
upperback -4.230451552779151 1.0787210655790895 -0.5427344541284675
thorax -11.341322274158866 0.49377431602911337 -0.7840369752660745
lowerneck -5.779473045986322 1.4863847219144777 4.565044748874001
upperneck 18.03407365848024 2.9414716272338985 -8.344410836990203
head 6.58888915613797 1.074075045684098 -3.2249258522494992
rclavicle 1.8396375385764273E-16 -2.026466252678979E-15
rhumerus 19.886939178071568 14.348567534218887 -47.73711056357249
rradius 72.230483870611
rwrist 27.12905744120526
rhand -34.62548005991276 -57.09926393670656
rfingers 7.125020000000035
rthumb -7.7785455679642475 -87.15353809391624
lclavicle -1.3400708935161127E-16 -4.3867671120598897E-16
lhumerus 21.03054426661373 -12.456755802087057 45.30119582895637
lradius 70.02917479484644
lwrist -22.26386001801161
lhand -44.78211968556335 -70.23652483511782
lfingers 7.125020000000026
lthumb -17.570123479717857 -40.91516056866232
rfemur -24.6958987783197 -2.3136886856041796 17.111406514087964
rtibia 54.50258949621933
rfoot -28.995151894147288 -16.654431617915847
rtoes -18.494394649083485
lfemur -25.897634494597035 2.4391237442475036 -18.063292714350403
ltibia 53.1936043636163
lfoot -30.794902637310116 -3.455431637002867
ltoes -20.88250489217348
90
root 0 0 0 1.0393291258222461 -3.6726300094915194 1.830334653569675
lowerback 11.9786425343084 0.8494816546126198 -0.06281919517292647
upperback -4.23048624220871 1.0787426416682924 -0.5427703555030242
thorax -11.341325467010202 0.4937871116497721 -0.7840605058442923
lowerneck -5.7798088089687845 1.4864095673014972 4.565036749175611
upperneck 18.034277856740108 2.9414734990571576 -8.344313887785315
head 6.589008137465063 1.074091206567346 -3.2249024651075406
rclavicle 2.0706379787190918E-16 -2.0347309074276043E-15
rhumerus 19.887542513793377 14.34880906597956 -47.73781521888298
rradius 72.23143186832952
rwrist 27.12975268289499
rhand -34.62839465505531 -57.10398844047197
rfingers 7.125020000000035
rthumb -7.7814678810609506 -87.15850819849932
lclavicle -1.1094782686789118E-16 -4.504234978514512E-16
lhumerus 21.029536430354156 -12.455390163847216 45.301565062485416
lradius 70.02922108005686
lwrist -22.264720711864694
lhand -44.782698261085315 -70.24363832551376
lfingers 7.125020000000026
lthumb -17.570802721606857 -40.92195504985529
rfemur -24.696785366056016 -2.314719307107568 17.111225016075206
rtibia 54.508193660498115
rfoot -28.994979484483537 -16.654656590042293
rtoes -18.496590933542656
lfemur -25.899757949474935 2.439463029741919 -18.063624675476053
ltibia 53.19642117810193
lfoot -30.791713362792194 -3.457034693980004
ltoes -20.878715785574258
91
root 0 0 0 1.039371821753817 -3.6725171933128586 1.8303722094965014
lowerback 11.978639346464663 0.8494943493818551 -0.06285877648809365
upperback -4.2305152725449 1.0787519404980497 -0.5427954947577722
thorax -11.341354731071277 0.4937925642161265 -0.7840677034771069
lowerneck -5.7800607048688235 1.4864291773112788 4.564993081903505
upperneck 18.034419568295373 2.941485100498433 -8.344191817969456
head 6.589096794621215 1.0740984670782867 -3.224856979590049
rclavicle 1.9885855291565264E-16 -2.0346337544982823E-15
rhumerus 19.886586072647695 14.347804344744407 -47.73779108140515
rradius 72.23069415909663
rwrist 27.130108690338588
rhand -34.62894164106857 -57.104556995651095
rfingers 7.125020000000035
rthumb -7.781979093397977 -87.1591145714402
lclavicle -1.1866256296794718E-16 -4.493477535360911E-16
lhumerus 21.029458307683548 -12.455087724583777 45.301994592518696
lradius 70.02900436254652
lwrist -22.26455036873095
lhand -44.78300970509286 -70.24515538834487
lfingers 7.125020000000026
lthumb -17.57111325302891 -40.92345265180043
rfemur -24.697110343995938 -2.314884056728166 17.111251707706003
rtibia 54.509123689387565
rfoot -28.994645347204195 -16.65460116024997
rtoes -18.49602406188545
lfemur -25.900451831470324 2.439524607697348 -18.063753034933054
ltibia 53.19761629312511
lfoot -30.79108048552453 -3.457392443402295
ltoes -20.87701752124594
92
root 0 0 0 1.039442625662759 -3.6723758063444643 1.8304101911570374
lowerback 11.978650377195567 0.8495060321078066 -0.06290769438510097
upperback -4.230549606160038 1.0787594273545995 -0.5428227980908342
thorax -11.34139966414992 0.4937969815184822 -0.7840719999280643
lowerneck -5.780381400426367 1.4864432438370179 4.564916709023381
upperneck 18.03457995039769 2.9414866517900755 -8.344018990442187
head 6.589203902474195 1.0741005672811466 -3.2247904431301735
rclavicle 1.9510512881135658E-16 -2.034583919894364E-15
rhumerus 19.885705533356656 14.346936464683068 -47.7379913783326
rradius 72.23004967054969
rwrist 27.130292215270245
rhand -34.62963937224165 -57.105191561130056
rfingers 7.125020000000035
rthumb -7.782648317352601 -87.1597506404656
lclavicle -1.2240792476445578E-16 -4.486538851684016E-16
lhumerus 21.029233844299213 -12.454685367554374 45.302485741499545
lradius 70.02870185531276
lwrist -22.264383812737943
lhand -44.78327491004373 -70.24655290229845
lfingers 7.125020000000026
lthumb -17.57136447021484 -40.92489305657104
rfemur -24.697251851712146 -2.3149244939174705 17.111217943691948
rtibia 54.50937284557471
rfoot -28.994377368533833 -16.65463162652809
rtoes -18.495662391141273
lfemur -25.90127067003371 2.4394727956994675 -18.06388010890783
ltibia 53.198183941278664
lfoot -30.79093091352448 -3.45745504780693
ltoes -20.87522763315269
93
root 0 0 0 1.0392898479817105 -3.6727894050266627 1.830241140145607
lowerback 11.978665901851677 0.8494522044247264 -0.06277602529945583
upperback -4.23043998799998 1.0787178075704755 -0.5427262700756859
thorax -11.34130978375093 0.493772430171042 -0.784035478645717
lowerneck -5.779383131683546 1.4863782506052976 4.565063013345583
upperneck 18.034021397714866 2.941467675986909 -8.344456630269146
head 6.588856844494229 1.0740727142464115 -3.224943325943416
rclavicle 1.8435372923814732E-16 -2.0263803298178583E-15
rhumerus 19.88708930034342 14.348713654799177 -47.73706084297665
rradius 72.23058563961307
rwrist 27.129027473363543
rhand -34.625326291108664 -57.09910101194791
rfingers 7.125020000000035
rthumb -7.778398736332367 -87.15337361442354
lclavicle -1.3360584641712676E-16 -4.386508046503573E-16
lhumerus 21.03059540207638 -12.456846494385575 45.301094516038056
lradius 70.02923404610081
lwrist -22.26388363073641
lhand -44.782063680649124 -70.2361997271105
lfingers 7.125020000000026
lthumb -17.570069807919293 -40.914830016893575
rfemur -24.69589276480821 -2.3136884720687276 17.111409613407993
rtibia 54.50259086563963
rfoot -28.995172021634193 -16.65442848877803
rtoes -18.49441287946872
lfemur -25.897531726226433 2.4391609622008037 -18.063264974475814
ltibia 53.193611085422795
lfoot -30.794878981255025 -3.45542147605639
ltoes -20.882753945091586
94
root 0 0 0 1.0393175407171416 -3.6726513920387114 1.8303274162693377
lowerback 11.978642941890302 0.8494789668549585 -0.06281032007404005
upperback -4.230479139276584 1.0787406357217 -0.5427653499779712
thorax -11.341317860962622 0.4937859510039701 -0.7840595764804064
lowerneck -5.779754052271466 1.486405547711898 4.565047774318113
upperneck 18.034245824794645 2.94147098429029 -8.344341713638475
head 6.588988396375963 1.0740897364821866 -3.2249130785966553
rclavicle 2.0732804388461592E-16 -2.034698896616381E-15
rhumerus 19.887635320561486 14.34889929488878 -47.737785684627795
rradius 72.23149562132001
rwrist 27.129734406211035
rhand -34.6283027055969 -57.103892737382445
rfingers 7.125020000000035
rthumb -7.781380139135038 -87.15841143832512
lclavicle -1.1066813769727441E-16 -4.504349655262201E-16
lhumerus 21.0295657536091 -12.455443861302085 45.30150399911531
lradius 70.02925648609451
lwrist -22.26473597180732
lhand -44.78266422386522 -70.24344324606552
lfingers 7.125020000000026
lthumb -17.57077004692089 -40.921757134232436
rfemur -24.696781978795205 -2.3147194306671905 17.111227230592878
rtibia 54.5081954419241
rfoot -28.994994377078708 -16.65465580466084
rtoes -18.496602345914766
lfemur -25.899702211677916 2.439486346640309 -18.063608211555714
ltibia 53.196430521760604
lfoot -30.79170089115875 -3.457025500635726
ltoes -20.878856931936788
95
root 0 0 0 1.0393647380430182 -3.6725303987532403 1.830367733588548
lowerback 11.97863963577116 0.8494926853842975 -0.06285330120474253
upperback -4.230510874198469 1.0787506973981362 -0.5427923995398649
thorax -11.34135004161307 0.49379184513748203 -0.7840671214168193
lowerneck -5.780026953217995 1.4864266731471283 4.564999840700981
upperneck 18.034399757354663 2.9414835150527336 -8.34420894661875
head 6.589084605903747 1.0740975443688328 -3.224863510700023
rclavicle 1.9900320043731998E-16 -2.0346075781751077E-15
rhumerus 19.886641589256655 14.347858547901637 -47.73777348641538
rradius 72.23073199771764
rwrist 27.13009725617798
rhand -34.62888533946684 -57.104497308544914
rfingers 7.125020000000035
rthumb -7.78192534532038 -87.15905421749852
lclavicle -1.1850998397707285E-16 -4.49345578057811E-16
lhumerus 21.029476725712165 -12.455121061594838 45.301957284356945
lradius 70.02902608753332
lwrist -22.26455925003683
lhand -44.78298898691976 -70.24503547727373
lfingers 7.125020000000026
lthumb -17.57109340133437 -40.92333082874933
rfemur -24.6971080968118 -2.314884070364983 17.111253092061123
rtibia 54.509124120445414
rfoot -28.994655701877612 -16.65460107395412
rtoes -18.496032143937988
lfemur -25.90041876646456 2.4395389341530733 -18.06374289582519
ltibia 53.19762188282467
lfoot -30.79107392554541 -3.457385680843143
ltoes -20.877103241687976
